<?xml version="1.0" encoding="UTF-8"?>
<svg version="1.1" xmlns="http://www.w3.org/2000/svg" width="414" height="100">
<path d="M0 0 C9.77250939 6.67943684 16.17061011 14.67726465 18.98828125 26.26953125 C21.30960894 40.41938902 18.40978832 51.0880628 10.80078125 63.15234375 C4.67381684 71.27908126 -5.86507223 75.9755004 -15.57421875 78.01953125 C-16.70859375 78.10203125 -17.84296875 78.18453125 -19.01171875 78.26953125 C-19.67429688 78.32109375 -20.336875 78.37265625 -21.01953125 78.42578125 C-32.83887879 78.93414028 -43.12587281 74.87657723 -52.19921875 67.48828125 C-60.39541721 59.91300691 -65.31707893 50.44288673 -66.01171875 39.26953125 C-66.12182757 25.36435972 -62.75275078 15.31444296 -53.01171875 5.26953125 C-38.36842141 -7.82182688 -16.99383027 -9.76428899 0 0 Z M-50.046875 10.12109375 C-58.12109471 18.72673769 -60.42074691 28.06955821 -60.27734375 39.6015625 C-59.5123255 50.16556449 -54.7156021 57.22779985 -47.01171875 64.26953125 C-44.46316003 66.26343179 -41.90720676 67.8334626 -39.01171875 69.26953125 C-37.83609375 69.86765625 -36.66046875 70.46578125 -35.44921875 71.08203125 C-26.36617893 74.19315119 -15.99340913 73.09588968 -7.30078125 69.390625 C1.87855751 64.89494202 8.45083002 57.78101433 12.296875 48.3125 C15.3665584 39.24219257 14.98575496 29.66883873 11.30859375 20.8359375 C6.34290193 11.18369039 -1.4240627 4.23490464 -11.796875 0.8046875 C-25.79064064 -2.57652219 -39.30185025 0.34538986 -50.046875 10.12109375 Z " fill="#FF5B00" transform="translate(128.01171875,13.73046875)"/>
<path d="M0 0 C3.3 0 6.6 0 10 0 C12.29306819 2.84141058 13.53275826 4.7921521 15 8 C15.75898124 9.3401154 16.52890575 10.674126 17.3125 12 C17.869375 12.99 18.42625 13.98 19 15 C22.86915815 11.70832814 24.49035256 7.03977809 26.59765625 2.51953125 C27.39042969 1.68808594 28.18320312 0.85664063 29 0 C32.3 0 35.6 0 39 0 C39 12.87 39 25.74 39 39 C36.03 39 33.06 39 30 39 C29.67 32.07 29.34 25.14 29 18 C28.030625 19.629375 27.06125 21.25875 26.0625 22.9375 C23.125 27.875 23.125 27.875 22 29 C19.640625 29.3359375 19.640625 29.3359375 17 29 C15.234375 27.1015625 15.234375 27.1015625 13.75 24.625 C13.24984375 23.81289063 12.7496875 23.00078125 12.234375 22.1640625 C11.45391143 20.79578143 10.70445957 19.40891915 10 18 C9.67 24.93 9.34 31.86 9 39 C6.03 39 3.06 39 0 39 C0 26.13 0 13.26 0 0 Z " fill="#000000" transform="translate(302,20)"/>
<path d="M0 0 C2.97 0 5.94 0 9 0 C9.33 3.96 9.66 7.92 10 12 C10.60585937 11.13375 11.21171875 10.2675 11.8359375 9.375 C18.43959578 0.43016549 18.43959578 0.43016549 22.890625 -0.796875 C25.36273614 -0.75449595 27.59286803 -0.5531282 30 0 C28.32770299 3.95969176 25.63695006 7.0161201 22.875 10.25 C22.40707031 10.80429687 21.93914062 11.35859375 21.45703125 11.9296875 C20.30824672 13.28947326 19.15460347 14.64515165 18 16 C19.58580832 20.91885456 22.47014412 24.57048986 25.5625 28.625 C26.56737765 29.94781225 27.56883165 31.27323413 28.56640625 32.6015625 C29.00927979 33.18244629 29.45215332 33.76333008 29.90844727 34.36181641 C31 36 31 36 32 39 C28.07318418 39.85876159 24.89531518 40.09368465 21 39 C17.46451535 35.34834942 12 29.32192476 12 24 C11.34 24.33 10.68 24.66 10 25 C9.52998967 28.27555608 9.52998967 28.27555608 9.375 32.0625 C9.30023438 33.35285156 9.22546875 34.64320312 9.1484375 35.97265625 C9.09945312 36.97167969 9.05046875 37.97070312 9 39 C6.03 39 3.06 39 0 39 C0 26.13 0 13.26 0 0 Z " fill="#000000" transform="translate(244,20)"/>
<path d="M0 0 C8.25 0 16.5 0 25 0 C25 2.31 25 4.62 25 7 C19.39 7 13.78 7 8 7 C8 9.64 8 12.28 8 15 C12.95 15 17.9 15 23 15 C23 17.31 23 19.62 23 22 C18.05 22 13.1 22 8 22 C8 24.97 8 27.94 8 31 C13.61 31 19.22 31 25 31 C25 33.64 25 36.28 25 39 C16.75 39 8.5 39 0 39 C0 26.13 0 13.26 0 0 Z " fill="#000000" transform="translate(183,20)"/>
<path d="M0 0 C8.91 0 17.82 0 27 0 C27 8.99797434 27 8.99797434 24.515625 12.0703125 C23.99226563 12.73933594 23.46890625 13.40835938 22.9296875 14.09765625 C22.37539062 14.76667969 21.82109375 15.43570313 21.25 16.125 C20.17057516 17.48073693 19.09242701 18.83749143 18.015625 20.1953125 C17.53383789 20.78328613 17.05205078 21.37125977 16.55566406 21.97705078 C14.57268761 24.55566705 12.80439272 27.29341093 11 30 C16.61 30.33 22.22 30.66 28 31 C28 33.31 28 35.62 28 38 C27 39 27 39 24.40795898 39.11352539 C23.28204346 39.10828857 22.15612793 39.10305176 20.99609375 39.09765625 C19.78115234 39.09443359 18.56621094 39.09121094 17.31445312 39.08789062 C16.03505859 39.07951172 14.75566406 39.07113281 13.4375 39.0625 C12.15423828 39.05798828 10.87097656 39.05347656 9.54882812 39.04882812 C6.36583978 39.03699545 3.18294238 39.02051068 0 39 C-0.8375743 30.77206425 1.32771052 26.98202916 6.375 20.625 C7.27992188 19.43583984 7.27992188 19.43583984 8.203125 18.22265625 C9.31869959 16.75753496 10.44319498 15.29912966 11.57958984 13.85009766 C12.7843125 12.28093501 13.9026426 10.6460361 15 9 C10.05 8.67 5.1 8.34 0 8 C0 5.36 0 2.72 0 0 Z " fill="#000000" transform="translate(212,20)"/>
<path d="M0 0 C6.27 0 12.54 0 19 0 C19 2.31 19 4.62 19 7 C17.35 7 15.7 7 14 7 C14 15.25 14 23.5 14 32 C15.65 32 17.3 32 19 32 C19 34.31 19 36.62 19 39 C12.73 39 6.46 39 0 39 C0 36.69 0 34.38 0 32 C1.65 32 3.3 32 5 32 C5 23.75 5 15.5 5 7 C3.35 7 1.7 7 0 7 C0 4.69 0 2.38 0 0 Z " fill="#000000" transform="translate(278,20)"/>
<path d="M0 0 C2.64 0 5.28 0 8 0 C8 0.66 8 1.32 8 2 C9.32 2 10.64 2 12 2 C12 1.34 12 0.68 12 0 C21.70994764 -0.62198953 21.70994764 -0.62198953 26.5 1.6875 C29.03148244 4.02912126 30.6510156 5.82591905 32 9 C31.6875 11.3125 31.6875 11.3125 31 13 C30.01 13 29.02 13 28 13 C27.34 12.01 26.68 11.02 26 10 C25.01 9.67 24.02 9.34 23 9 C22.67 15.6 22.34 22.2 22 29 C20.68 29 19.36 29 18 29 C18 24.71 18 20.42 18 16 C17.01 16 16.02 16 15 16 C15 20.29 15 24.58 15 29 C13.68 29 12.36 29 11 29 C10.67 23.06 10.34 17.12 10 11 C9.34 10.67 8.68 10.34 8 10 C8 10.66 8 11.32 8 12 C5.36 12 2.72 12 0 12 C0 8.04 0 4.08 0 0 Z M18 4 C18 4.99 18 5.98 18 7 C18.66 7 19.32 7 20 7 C19.67 6.01 19.34 5.02 19 4 C18.67 4 18.34 4 18 4 Z " fill="#FF5B00" transform="translate(88,19)"/>
<path d="M0 0 C2.97 0 5.94 0 9 0 C9.0743839 4.46570449 9.12871171 8.93107684 9.16479492 13.3972168 C9.17984353 14.91518438 9.20028738 16.43310876 9.22631836 17.95092773 C9.26287653 20.13796677 9.27976523 22.32442896 9.29296875 24.51171875 C9.3086792 25.82615967 9.32438965 27.14060059 9.34057617 28.49487305 C8.97729199 32.23370533 8.27997856 34.05373547 6 37 C2.2632157 39.49118953 0.25548181 39.2065226 -4.1875 39.125 C-5.45980469 39.10695312 -6.73210937 39.08890625 -8.04296875 39.0703125 C-9.01878906 39.04710937 -9.99460938 39.02390625 -11 39 C-12.1171875 34.2890625 -12.1171875 34.2890625 -11.0625 31.6875 C-10.711875 31.130625 -10.36125 30.57375 -10 30 C-7.94921875 30.29296875 -5.8984375 30.5859375 -3.84765625 30.87890625 C-3.23792969 30.91886719 -2.62820312 30.95882812 -2 31 C-0.11368457 29.11368457 -0.75734708 25.85799307 -0.68359375 23.33984375 C-0.66281265 22.67537735 -0.64203156 22.01091095 -0.62062073 21.3263092 C-0.55506342 19.19681457 -0.49621215 17.06719332 -0.4375 14.9375 C-0.39432061 13.49673153 -0.35070651 12.05597601 -0.30664062 10.61523438 C-0.19937607 7.0769596 -0.09812629 3.53854131 0 0 Z " fill="#000000" transform="translate(167,20)"/>
<path d="M0 0 C1.37478516 0.01740234 1.37478516 0.01740234 2.77734375 0.03515625 C3.69644531 0.04417969 4.61554688 0.05320313 5.5625 0.0625 C6.27277344 0.07410156 6.98304687 0.08570313 7.71484375 0.09765625 C7.81375039 4.45753697 7.88632751 8.81682298 7.93457031 13.17749023 C7.95468134 14.66067886 7.98197449 16.14378824 8.01660156 17.62670898 C8.06514727 19.7591506 8.0878157 21.89054402 8.10546875 24.0234375 C8.12641602 25.30645752 8.14736328 26.58947754 8.16894531 27.91137695 C7.71484375 31.09765625 7.71484375 31.09765625 5.85449219 33.04760742 C3.71484375 34.09765625 3.71484375 34.09765625 1.08984375 33.97265625 C-1.28515625 33.09765625 -1.28515625 33.09765625 -3.28515625 30.09765625 C-3.52807617 27.11083984 -3.52807617 27.11083984 -3.515625 23.49609375 C-3.51369141 22.201875 -3.51175781 20.90765625 -3.50976562 19.57421875 C-3.50356201 18.90165039 -3.4973584 18.22908203 -3.4909668 17.53613281 C-3.47266092 15.47318234 -3.47045753 13.41067962 -3.47070312 11.34765625 C-3.42039705 0.14617081 -3.42039705 0.14617081 0 0 Z M1.71484375 14.09765625 C1.71484375 15.08765625 1.71484375 16.07765625 1.71484375 17.09765625 C2.37484375 17.09765625 3.03484375 17.09765625 3.71484375 17.09765625 C3.38484375 16.10765625 3.05484375 15.11765625 2.71484375 14.09765625 C2.38484375 14.09765625 2.05484375 14.09765625 1.71484375 14.09765625 Z M0.71484375 21.09765625 C0.71484375 21.75765625 0.71484375 22.41765625 0.71484375 23.09765625 C2.03484375 22.43765625 3.35484375 21.77765625 4.71484375 21.09765625 C3.39484375 21.09765625 2.07484375 21.09765625 0.71484375 21.09765625 Z M1.71484375 26.09765625 C1.71484375 27.08765625 1.71484375 28.07765625 1.71484375 29.09765625 C2.37484375 28.43765625 3.03484375 27.77765625 3.71484375 27.09765625 C3.05484375 26.76765625 2.39484375 26.43765625 1.71484375 26.09765625 Z " fill="#FF5B00" transform="translate(102.28515625,48.90234375)"/>
<path d="M0 0 C2.48038907 3.7205836 2.46337203 5.59796571 2 10 C0.125 12.4375 0.125 12.4375 -2 14 C-2.66 14 -3.32 14 -4 14 C-3.75636719 15.68996094 -3.75636719 15.68996094 -3.5078125 17.4140625 C-2.92601333 22.07873496 -2.85179238 26.67932577 -2.875 31.375 C-2.87113281 32.18066406 -2.86726562 32.98632812 -2.86328125 33.81640625 C-2.87321429 39.74642857 -2.87321429 39.74642857 -4 42 C-5.32 41.67 -6.64 41.34 -8 41 C-8.00410889 40.23856689 -8.00821777 39.47713379 -8.01245117 38.69262695 C-8.0454114 35.23180334 -8.11606054 31.77273429 -8.1875 28.3125 C-8.19620117 26.51522461 -8.19620117 26.51522461 -8.20507812 24.68164062 C-8.21757204 17.74051724 -8.21757204 17.74051724 -11.515625 11.890625 C-12.33546875 11.26671875 -13.1553125 10.6428125 -14 10 C-14.5625 6.4375 -14.5625 6.4375 -14 3 C-9.77615444 -2.53469418 -6.25400943 -2.27418525 0 0 Z M-8 4 C-8.33 5.32 -8.66 6.64 -9 8 C-7.02 8.99 -7.02 8.99 -5 10 C-4.34 9.34 -3.68 8.68 -3 8 C-3.3185177 5.89179203 -3.3185177 5.89179203 -4 4 C-5.32 4 -6.64 4 -8 4 Z " fill="#FF5B00" transform="translate(135,31)"/>
<path d="M0 0 C3.63 0 7.26 0 11 0 C10.88638398 2.79256219 10.7596411 5.58344118 10.625 8.375 C10.57859375 9.56609375 10.57859375 9.56609375 10.53125 10.78125 C10.2265625 16.7734375 10.2265625 16.7734375 8 19 C5.5 19.25 5.5 19.25 3 19 C-0.02093215 15.97906785 0.53323166 12.43627928 0.375 8.375 C0.33632812 7.57320313 0.29765625 6.77140625 0.2578125 5.9453125 C0.16346069 3.96392444 0.08063785 1.98199355 0 0 Z M5 3 C5 6.63 5 10.26 5 14 C5.33 14 5.66 14 6 14 C6 10.37 6 6.74 6 3 C5.67 3 5.34 3 5 3 Z " fill="#FF5B00" transform="translate(112,61)"/>
<path d="M0 0 C1.14626322 0.97866338 2.29199788 1.95794587 3.4375 2.9375 C4.39462891 3.75541016 4.39462891 3.75541016 5.37109375 4.58984375 C7.98641354 6.85394553 7.98641354 6.85394553 8.25 9.6875 C7.96711865 13.43567794 6.85017533 15.76219317 5 19 C2.03 19 -0.94 19 -4 19 C-8.01813472 11.81606218 -8.01813472 11.81606218 -7.9375 8.1875 C-6.93823454 5.8558806 -5.98216506 4.56921401 -4 3 C-3.67 3 -3.34 3 -3 3 C-3 6.3 -3 9.6 -3 13 C-1.35 13 0.3 13 2 13 C2.33 11.68 2.66 10.36 3 9 C1.35 7.68 -0.3 6.36 -2 5 C-1.34 3.35 -0.68 1.7 0 0 Z " fill="#FF5B00" transform="translate(80,29)"/>
<path d="M0 0 C2.64 0 5.28 0 8 0 C8 6.27 8 12.54 8 19 C5.36 19 2.72 19 0 19 C-1.73687966 17.26312034 -1.13220366 15.03828808 -1.13671875 12.7265625 C-1.13285156 12.03304687 -1.12898438 11.33953125 -1.125 10.625 C-1.12886719 9.93921875 -1.13273437 9.2534375 -1.13671875 8.546875 C-1.13065046 5.42777362 -0.99341455 2.98024365 0 0 Z " fill="#FF5B00" transform="translate(77,53)"/>
<path d="M0 0 C0.66 0 1.32 0 2 0 C4.7476642 4.98145228 4.01159484 9.842183 3.625 15.3125 C3.56828125 16.24384766 3.5115625 17.17519531 3.453125 18.13476562 C3.31224774 20.42402103 3.16090171 22.7120794 3 25 C1.68 25 0.36 25 -1 25 C-1.22282257 21.95877308 -1.42868018 18.9179572 -1.625 15.875 C-1.68945312 15.0190625 -1.75390625 14.163125 -1.8203125 13.28125 C-2.12306989 8.36144244 -1.98895393 4.6307706 0 0 Z " fill="#FF5B00" transform="translate(91,36)"/>
<path d="M0 0 C0.99 0 1.98 0 3 0 C3.66 0.99 4.32 1.98 5 3 C5.33 2.01 5.66 1.02 6 0 C6.99 0 7.98 0 9 0 C9.66 0.99 10.32 1.98 11 3 C11.33 2.01 11.66 1.02 12 0 C12.99 0.33 13.98 0.66 15 1 C14.01 4.63 13.02 8.26 12 12 C11.01 12 10.02 12 9 12 C8.34 11.01 7.68 10.02 7 9 C6.67 9.99 6.34 10.98 6 12 C5.01 12 4.02 12 3 12 C2.01 8.04 1.02 4.08 0 0 Z " fill="#FF5B00" transform="translate(207,76)"/>
<path d="M0 0 C1.65 0 3.3 0 5 0 C5.5534764 2.07553648 6 3.84365964 6 6 C6.66 6 7.32 6 8 6 C8 7.98 8 9.96 8 12 C6.52093108 12.02689216 5.04172517 12.04634621 3.5625 12.0625 C2.32693359 12.07990234 2.32693359 12.07990234 1.06640625 12.09765625 C-1 12 -1 12 -2 11 C-2.34892324 6.92922882 -1.41404314 3.80024093 0 0 Z M1 7 C1 7.99 1 8.98 1 10 C1.99 9.67 2.98 9.34 4 9 C3.01 8.34 2.02 7.68 1 7 Z " fill="#FF5B00" transform="translate(259,76)"/>
<path d="M0 0 C2.64 0 5.28 0 8 0 C8.05399736 1.45792884 8.09279177 2.91642712 8.125 4.375 C8.14820312 5.18710938 8.17140625 5.99921875 8.1953125 6.8359375 C8 9 8 9 6 11 C1.44444444 10.44444444 1.44444444 10.44444444 0 9 C-0.07179964 7.48071962 -0.08392007 5.95832518 -0.0625 4.4375 C-0.05347656 3.61121094 -0.04445313 2.78492187 -0.03515625 1.93359375 C-0.02355469 1.29550781 -0.01195313 0.65742187 0 0 Z " fill="#FF5B00" transform="translate(88,69)"/>
<path d="M0 0 C2.31 0 4.62 0 7 0 C7.33 0.99 7.66 1.98 8 3 C5.03 2.505 5.03 2.505 2 2 C2 2.66 2 3.32 2 4 C3.98 4.66 5.96 5.32 8 6 C8.042721 7.66611905 8.04063832 9.33382885 8 11 C7 12 7 12 3.4375 12.0625 C2.303125 12.041875 1.16875 12.02125 0 12 C0 10.68 0 9.36 0 8 C1.65 8.33 3.3 8.66 5 9 C4.071875 8.566875 4.071875 8.566875 3.125 8.125 C1 7 1 7 -1 5 C-0.625 2.375 -0.625 2.375 0 0 Z " fill="#FF5B00" transform="translate(323,76)"/>
<path d="M0 0 C1.134375 0.020625 2.26875 0.04125 3.4375 0.0625 C3.7675 1.0525 4.0975 2.0425 4.4375 3.0625 C1.4675 2.5675 1.4675 2.5675 -1.5625 2.0625 C-0.18558038 4.81633923 1.80470042 5.57733101 4.4375 7.0625 C4.1075 8.7125 3.7775 10.3625 3.4375 12.0625 C1.1275 12.0625 -1.1825 12.0625 -3.5625 12.0625 C-3.5625 10.7425 -3.5625 9.4225 -3.5625 8.0625 C-1.0875 9.0525 -1.0875 9.0525 1.4375 10.0625 C0.04554085 7.2785817 -1.71825779 7.08351003 -4.5625 6.0625 C-4.605221 4.39638095 -4.60313832 2.72867115 -4.5625 1.0625 C-3.5625 0.0625 -3.5625 0.0625 0 0 Z " fill="#FF5B00" transform="translate(277.5625,75.9375)"/>
<path d="M0 0 C3.375 -0.125 3.375 -0.125 7 0 C9 2 9 2 9.265625 3.875 C9.26046875 4.57625 9.2553125 5.2775 9.25 6 C9.25515625 6.70125 9.2603125 7.4025 9.265625 8.125 C9 10 9 10 7 12 C3.375 12.125 3.375 12.125 0 12 C0 8.04 0 4.08 0 0 Z M2 2 C2 4.64 2 7.28 2 10 C3.32 9.67 4.64 9.34 6 9 C6.69159401 7.15274948 6.69159401 7.15274948 7 5 C6.34 4.01 5.68 3.02 5 2 C4.01 2 3.02 2 2 2 Z " fill="#FF5B00" transform="translate(198,76)"/>
<path d="M0 0 C2.33294775 -0.04241723 4.66702567 -0.04092937 7 0 C8 1 8 1 8 4.875 C7.979375 5.57367188 7.95875 6.27234375 7.9375 6.9921875 C7.9105259 9.20917431 7.9105259 9.20917431 9 12 C7.125 11.6875 7.125 11.6875 5 11 C4.34 10.01 3.68 9.02 3 8 C2.67 9.32 2.34 10.64 2 12 C1.34 12 0.68 12 0 12 C0 8.04 0 4.08 0 0 Z M2 2 C2 2.99 2 3.98 2 5 C3.32 4.67 4.64 4.34 6 4 C5.67 3.34 5.34 2.68 5 2 C4.01 2 3.02 2 2 2 Z " fill="#FF5B00" transform="translate(188,76)"/>
<path d="M0 0 C2.33294775 -0.04241723 4.66702567 -0.04092937 7 0 C8 1 8 1 8 4.875 C7.979375 5.57367188 7.95875 6.27234375 7.9375 6.9921875 C7.9105259 9.20917431 7.9105259 9.20917431 9 12 C7.68 11.67 6.36 11.34 5 11 C4.67 9.68 4.34 8.36 4 7 C3.34 7 2.68 7 2 7 C2 8.65 2 10.3 2 12 C1.34 12 0.68 12 0 12 C0 8.04 0 4.08 0 0 Z M2 2 C2 2.99 2 3.98 2 5 C3.32 5 4.64 5 6 5 C5.67 4.01 5.34 3.02 5 2 C4.01 2 3.02 2 2 2 Z " fill="#FF5B00" transform="translate(303,76)"/>
<path d="M0 0 C2.33294775 -0.04241723 4.66702567 -0.04092937 7 0 C8 1 8 1 8 4.875 C7.979375 5.57367188 7.95875 6.27234375 7.9375 6.9921875 C7.9105259 9.20917431 7.9105259 9.20917431 9 12 C7.125 11.6875 7.125 11.6875 5 11 C4.34 10.01 3.68 9.02 3 8 C2.67 9.32 2.34 10.64 2 12 C1.34 12 0.68 12 0 12 C0 8.04 0 4.08 0 0 Z M2 2 C2 2.99 2 3.98 2 5 C3.32 5 4.64 5 6 5 C5.67 4.01 5.34 3.02 5 2 C4.01 2 3.02 2 2 2 Z " fill="#FF5B00" transform="translate(233,76)"/>
<path d="M0 0 C2.64 0 5.28 0 8 0 C9.125 5.75 9.125 5.75 8 8 C6.35 8 4.7 8 3 8 C3 9.32 3 10.64 3 12 C2.01 12 1.02 12 0 12 C0 8.04 0 4.08 0 0 Z M3 2 C3 3.32 3 4.64 3 6 C3.99 6 4.98 6 6 6 C6 4.68 6 3.36 6 2 C5.01 2 4.02 2 3 2 Z " fill="#FF5B00" transform="translate(283,76)"/>
<path d="M0 0 C0.99 0 1.98 0 3 0 C3.6708712 1.6232687 4.33657029 3.24867578 5 4.875 C5.556875 6.23238281 5.556875 6.23238281 6.125 7.6171875 C7 10 7 10 7 12 C6.01 12 5.02 12 4 12 C3.67 11.34 3.34 10.68 3 10 C0.97536745 9.34786708 0.97536745 9.34786708 -1 9 C-1 9.99 -1 10.98 -1 12 C-1.99 12 -2.98 12 -4 12 C-3.52494322 10.18641846 -3.04483958 8.37415821 -2.5625 6.5625 C-2.29566406 5.55316406 -2.02882812 4.54382813 -1.75390625 3.50390625 C-1 1 -1 1 0 0 Z M1 4 C0.67 4.99 0.34 5.98 0 7 C0.66 7 1.32 7 2 7 C1.67 6.01 1.34 5.02 1 4 Z " fill="#FF5B00" transform="translate(225,76)"/>
<path d="M0 0 C1.32 0.33 2.64 0.66 4 1 C4.99 4.63 5.98 8.26 7 12 C6.01 12 5.02 12 4 12 C4 11.01 4 10.02 4 9 C2.02463255 9.34786708 2.02463255 9.34786708 0 10 C-0.33 10.66 -0.66 11.32 -1 12 C-1.99 11.67 -2.98 11.34 -4 11 C-2.68 7.37 -1.36 3.74 0 0 Z M1 4 C1 4.99 1 5.98 1 7 C1.66 6.67 2.32 6.34 3 6 C2.34 5.34 1.68 4.68 1 4 Z " fill="#FF5B00" transform="translate(295,76)"/>
<path d="M0 0 C0.99 0 1.98 0 3 0 C4.32 3.96 5.64 7.92 7 12 C6.01 12 5.02 12 4 12 C3.67 11.34 3.34 10.68 3 10 C0.97536745 9.34786708 0.97536745 9.34786708 -1 9 C-1 9.99 -1 10.98 -1 12 C-1.99 12 -2.98 12 -4 12 C-3.52494322 10.18641846 -3.04483958 8.37415821 -2.5625 6.5625 C-2.29566406 5.55316406 -2.02882812 4.54382813 -1.75390625 3.50390625 C-1 1 -1 1 0 0 Z M1 4 C0.67 4.99 0.34 5.98 0 7 C0.66 7 1.32 7 2 7 C1.67 6.01 1.34 5.02 1 4 Z " fill="#FF5B00" transform="translate(180,76)"/>
<path d="M0 0 C2.64 0 5.28 0 8 0 C8 0.66 8 1.32 8 2 C6.35 2 4.7 2 3 2 C3 2.99 3 3.98 3 5 C4.32 5 5.64 5 7 5 C7 5.66 7 6.32 7 7 C5.68 7 4.36 7 3 7 C3 7.99 3 8.98 3 10 C4.65 10 6.3 10 8 10 C8 10.66 8 11.32 8 12 C5.36 12 2.72 12 0 12 C0 8.04 0 4.08 0 0 Z " fill="#FF5B00" transform="translate(313,76)"/>
<path d="M0 0 C2.64 0 5.28 0 8 0 C8 0.66 8 1.32 8 2 C6.02 2 4.04 2 2 2 C2 2.99 2 3.98 2 5 C3.65 5 5.3 5 7 5 C7 5.66 7 6.32 7 7 C5.35 7 3.7 7 2 7 C2 7.99 2 8.98 2 10 C3.98 10 5.96 10 8 10 C8 10.66 8 11.32 8 12 C5.36 12 2.72 12 0 12 C0 8.04 0 4.08 0 0 Z " fill="#FF5B00" transform="translate(243,76)"/>
<path d="M0 0 C0.66 0 1.32 0 2 0 C2 1.65 2 3.3 2 5 C3.65 5 5.3 5 7 5 C7 3.35 7 1.7 7 0 C7.66 0 8.32 0 9 0 C9 3.96 9 7.92 9 12 C8.34 12 7.68 12 7 12 C7 10.35 7 8.7 7 7 C5.35 7 3.7 7 2 7 C2 8.65 2 10.3 2 12 C1.34 12 0.68 12 0 12 C0 8.04 0 4.08 0 0 Z " fill="#FF5B00" transform="translate(166,76)"/>
<path d="M0 0 C0.99 0 1.98 0 3 0 C3 2.97 3 5.94 3 9 C3.99 9 4.98 9 6 9 C6 9.99 6 10.98 6 12 C3.03 12 0.06 12 -3 12 C-3 11.01 -3 10.02 -3 9 C-2.01 9 -1.02 9 0 9 C0 6.03 0 3.06 0 0 Z " fill="#FF5B00" transform="translate(116,48)"/>
<path d="M0 0 C1.32 0 2.64 0 4 0 C4 0.66 4 1.32 4 2 C4.99 2 5.98 2 7 2 C7 2.99 7 3.98 7 5 C3.7 5 0.4 5 -3 5 C-3 4.01 -3 3.02 -3 2 C-2.01 2 -1.02 2 0 2 C0 1.34 0 0.68 0 0 Z " fill="#FF5B00" transform="translate(90,62)"/>
<path d="M0 0 C2.64 0 5.28 0 8 0 C8 0.99 8 1.98 8 3 C5.36 3 2.72 3 0 3 C0 2.01 0 1.02 0 0 Z " fill="#FF5B00" transform="translate(77,49)"/>
<path d="M0 0 C2.475 0.495 2.475 0.495 5 1 C4.34 2.32 3.68 3.64 3 5 C2.01 4.67 1.02 4.34 0 4 C0 2.68 0 1.36 0 0 Z " fill="#FF5B00" transform="translate(78,37)"/>
<path d="M0 0 C2.1385485 2.1385485 2.42655063 3.13275314 3 6 C1.35 6 -0.3 6 -2 6 C-1.34 4.02 -0.68 2.04 0 0 Z " fill="#FF5B00" transform="translate(117,40)"/>
</svg>
